<svg xmlns="http://www.w3.org/2000/svg" viewBox="0 0 128 128" role="img" aria-label="Viện kiểm sát nhân dân">
  <circle cx="64" cy="64" r="64" fill="#071a4a"/>
  <circle cx="64" cy="64" r="58" fill="none" stroke="#ffe14a" stroke-width="4"/>
  <circle cx="64" cy="64" r="50" fill="#9e1b2c"/>
  <circle cx="64" cy="64" r="46" fill="none" stroke="#ffe14a" stroke-width="1.5"/>
  <path fill="#ffe14a" d="M64 22 72 46h26L78 60l8 24-22-14-22 14 8-24-20-14h26z"/>
  <rect x="61.5" y="74" width="5" height="26" rx="1" fill="#ffe14a"/>
  <rect x="52" y="80" width="24" height="4" rx="1" fill="#ffe14a"/>
  <path fill="none" stroke="#ffe14a" stroke-width="3" d="M28 78c10 16 22 22 36 22s26-6 36-22"/>
  <path fill="#ffe14a" d="M30 70c2 8 6 14 8 16-6-2-10-8-8-16zm68 0c-2 8-6 14-8 16 6-2 10-8 8-16z"/>
</svg>
