<svg xmlns="http://www.w3.org/2000/svg" viewBox="0 0 32 32" role="img" aria-label="SVB">
  <rect width="32" height="32" rx="5" fill="#f3efe4"/>
  <circle cx="16" cy="16" r="15.15" fill="#8e1d2c"/>
  <circle cx="16" cy="16" r="13.05" fill="#f3efe4"/>
  <circle cx="16" cy="16" r="11.55" fill="#8a7348"/>
  <circle cx="16" cy="16" r="10.15" fill="#f3efe4"/>
  <path fill="#1a2330" d="M6.25 10.15H11.65V12.6H8.65V14.95H11.65V22.15H6.25V19.7H9.25V17.35H6.25ZM12.85 10.15 15.6 22.15 18.35 10.15 16.05 10.15 15.6 16.7 15.15 10.15Z"/>
  <path fill="#1a2330" fill-rule="evenodd" d="M19.55 10.15H23.2C25.25 10.15 25.25 15.75 23.15 16.05 26.05 16.35 26.05 22.15 23.4 22.15H19.55ZM21.95 12.4H22.9C23.85 12.4 23.85 14.45 22.9 14.45H21.95ZM21.95 17.7H23.15C24.25 17.7 24.25 20.15 23.15 20.15H21.95Z"/>
</svg>
